<?xml version="1.0" encoding="UTF-8"?>
<svg id="Layer_2" data-name="Layer 2" xmlns="http://www.w3.org/2000/svg" viewBox="0 0 100.08 100.08">
  <defs>
    <style>
      .cls-1 {
        fill: none;
      }

      .cls-1, .cls-2 {
        stroke-width: 0px;
      }

      .cls-2 {
        fill: #85a98d;
      }
    </style>
  </defs>
  <g id="Layer_1-2" data-name="Layer 1">
    <rect class="cls-1" width="100" height="100"/>
    <path class="cls-2" d="M54.72,9.82C42.32-2.59,22.22-2.59,9.82,9.82c-12.4,12.4-12.4,32.51,0,44.91,11.5,11.5,29.61,12.33,42.07,2.52l6.29,6.29c-1.2,2.11-.9,4.84.9,6.64l28.67,28.67,11.09-11.09-28.67-28.67c-1.8-1.8-4.53-2.1-6.64-.9l-6.29-6.29c9.82-12.46,8.98-30.58-2.52-42.07ZM15.17,49.37c-9.45-9.45-9.45-24.76,0-34.2s24.76-9.45,34.2,0c9.45,9.45,9.45,24.76,0,34.2-9.45,9.45-24.76,9.45-34.2,0Z"/>
  </g>
</svg>